{"title":"Shell 2012 DVDrip English Klam","uid":10321254,"size":1364079239,"categoryP":"video","categoryS":"movies","magnet":"?xt=urn:btih:4ae5116bbc28df132524eace3090b9f7b79381ae&amp;dn=Shell+2012+DVDrip+English+Klam&amp;tr=udp%3A%2F%2Ftracker.openbittorrent.com%3A80&amp;tr=udp%3A%2F%2Fopen.demonii.com%3A1337&amp;tr=udp%3A%2F%2Ftracker.coppersurfer.tk%3A6969&amp;tr=udp%3A%2F%2Fexodus.desync.com%3A6969","seeders":4,"leechers":1,"uploader":"Klambake","files":-1,"time":1402310125,"description":"With: Chloe Pirrie, Tam Dean Burn and Morven Christie\n\nShell woont samen met haar vader Pete in hun afgelegen tankstation in de Schotse Highlands. Als Pete zich terug trekt in de eenzaamheid, werkt Shell als een sirene die voorbijgangers trekt. Ze weet echter nog niet dat deze winter haar laatste zal zijn bij de tankstop.\n\nThe story of Shell, a girl who lives with her father Pete in a remote gas station in the Scottish Highlands, in their struggle against the elements and the impossible love they feel during the last winter that she will be in that place.\n &lt;a href=&quot;\nhttp://www.imdb.com/title/tt2088893&quot; rel=&quot;nofollow&quot; target=&quot;_NEW&quot;&gt;\nhttp://www.imdb.com/title/tt2088893&lt;/a&gt;\t\n\n--------------------- Dutch Friends 4ever ---------------------\n---------------------------------------------------------------\n- Bezoek ook eens mijn vrienden op: &lt;a href=&quot; http://www.Film-Test.nl&quot; rel=&quot;nofollow&quot; target=&quot;_NEW&quot;&gt; http://www.Film-Test.nl&lt;/a&gt; --\n----- voor mijn Nederlandse Sync. ondertitels ---- en meer ----\n------- http://www.Film-Test.nl ---- Over Films en meer -------\n---------------------------------------------------------------\n &lt;a href=&quot;\nhttp://i.imgur.com/0VTx9j8.jpg&quot; rel=&quot;nofollow&quot; target=&quot;_NEW&quot;&gt;\nhttp://i.imgur.com/0VTx9j8.jpg&lt;/a&gt; &lt;a href=&quot;\nhttp://i.imgur.com/DyJp8sH.jpg&quot; rel=&quot;nofollow&quot; target=&quot;_NEW&quot;&gt;\nhttp://i.imgur.com/DyJp8sH.jpg&lt;/a&gt; &lt;a href=&quot;\nhttp://i.imgur.com/776J5Qx.jpg&quot; rel=&quot;nofollow&quot; target=&quot;_NEW&quot;&gt;\nhttp://i.imgur.com/776J5Qx.jpg&lt;/a&gt;\n\nGeneral:\n\nComplete name                            : ShellShell.avi\nFormat                                   : AVI\nFormat/Info                              : Audio Video Interleave\nFile size                                : 1.27 GiB\nDuration                                 : 1h 27mn\nOverall bit rate                         : 2 085 Kbps\n\nVideo:\n\nFormat                                   : MPEG-4 Visual\nFormat profile                           : Simple@L3\nFormat settings, BVOP                    : No\nFormat settings, QPel                    : No\nFormat settings, GMC                     : No warppoints\nFormat settings, Matrix                  : Default (H.263)\nCodec ID                                 : XVID\nCodec ID/Hint                            : XviD\nDuration                                 : 1h 27mn\nBit rate                                 : 1 626 Kbps\nWidth                                    : 720 pixels\nHeight                                   : 304 pixels\nDisplay aspect ratio                     : 2.35:1\nFrame rate                               : 25.000 fps\nColor space                              : YUV\nChroma subsampling                       : 4:2:0\nBit depth                                : 8 bits\nScan type                                : Progressive\nCompression mode                         : Lossy\nBits/(Pixel*Frame)                       : 0.297\nStream size                              : 1 014 MiB (78%)\nWriting library                          : XviD 1.1.2 (UTC 2006-11-01)\n\nAudio:\n\nFormat                                   : AC-3\nFormat/Info                              : Audio Coding 3\nMode extension                           : CM (complete main)\nFormat settings, Endianness              : Big\nCodec ID                                 : 2000\nDuration                                 : 1h 27mn\nSource duration                          : 1h 27mn\nBit rate mode                            : Constant\nBit rate                                 : 448 Kbps\nChannel(s)                               : 6 channels\nChannel positions                        : Front: L C R, Side: L R, LFE\nSampling rate                            : 48.0 KHz\nBit depth                                : 16 bits\nCompression mode                         : Lossy\nStream size                              : 279 MiB (21%)\nAlignment                                : Aligned on interleaves\nInterleave, duration                     : 32 ms (0.80 video frame)\nInterleave, preload duration             : 352 ms\n\n\n\n","torrent":{"xt":"urn:btih:4ae5116bbc28df132524eace3090b9f7b79381ae","amp;dn":"Shell+2012+DVDrip+English+Klam","amp;tr":["udp%3A%2F%2Ftracker.openbittorrent.com%3A80","udp%3A%2F%2Fopen.demonii.com%3A1337","udp%3A%2F%2Ftracker.coppersurfer.tk%3A6969","udp%3A%2F%2Fexodus.desync.com%3A6969"],"infoHash":"4ae5116bbc28df132524eace3090b9f7b79381ae","infoHashBuffer":{"type":"Buffer","data":[74,229,17,107,188,40,223,19,37,36,234,206,48,144,185,247,183,147,129,174]},"announce":[],"urlList":[]}}